<?xml version="1.0" encoding="UTF-8"?>
<!-- Generator: visioncortex VTracer 0.6.3 -->
<svg version="1.1" xmlns="http://www.w3.org/2000/svg" width="1280" height="1280">
<path d="M0 0 C1.63 0.92 3.26 1.86 4.88 2.81 C6.68 3.68 8.49 4.55 10.3 5.41 C19.55 9.85 28.22 15.15 36.91 20.6 C40.21 22.64 43.56 24.57 46.93 26.5 C48.88 27.81 48.88 27.81 50.76 29.72 C53.25 32.18 55.96 33.89 58.88 35.81 C60.99 37.52 63.07 39.23 65.12 41 C65.69 41.48 66.26 41.97 66.84 42.47 C68.53 43.91 70.2 45.36 71.88 46.81 C72.74 47.56 73.6 48.31 74.48 49.07 C85.2 58.55 95 68.58 103.88 79.81 C105.42 81.65 106.96 83.48 108.5 85.31 C112.78 90.54 116.37 96.05 119.88 101.81 C120.69 103.08 121.5 104.35 122.31 105.62 C123.17 107.02 124.02 108.41 124.88 109.81 C125.77 111.25 125.77 111.25 126.68 112.71 C144.14 141.82 151.64 176.09 151.45 209.74 C151.44 213.11 151.47 216.48 151.51 219.85 C151.6 245.96 146.28 273.17 135.07 296.9 C133.84 299.89 133.28 302.61 132.88 305.81 C132.22 305.81 131.56 305.81 130.88 305.81 C130.5 306.81 130.5 306.81 130.11 307.83 C126.39 316.82 121.98 325.81 116.3 333.72 C114.73 335.97 114.73 335.97 113.02 339.11 C110.88 342.91 108.43 346.42 105.88 349.94 C105.45 350.53 105.02 351.13 104.59 351.74 C101.09 356.59 97.43 361.24 93.44 365.69 C91.21 368.2 89.19 370.72 87.31 373.5 C84.96 376.9 82.12 379.24 78.88 381.81 C75.85 384.69 73.09 387.71 70.38 390.88 C67.76 393.89 65.19 396.54 61.88 398.81 C61.22 398.81 60.56 398.81 59.88 398.81 C59.47 399.68 59.47 399.68 59.06 400.56 C57.88 402.81 57.88 402.81 56.43 404.43 C54.25 407.76 53.61 411.29 52.81 415.12 C52.65 415.84 52.49 416.55 52.33 417.29 C51.28 422.13 50.58 426.97 49.97 431.89 C48.82 440.85 46.88 449.59 44.91 458.41 C43.01 466.92 41.49 475.33 40.42 484 C39.53 490.22 38.21 496.33 36.84 502.45 C36.37 504.6 35.9 506.75 35.44 508.91 C35.14 510.29 34.84 511.67 34.53 513.05 C34.26 514.28 33.99 515.51 33.71 516.77 C32.88 519.81 32.88 519.81 30.88 522.81 C25.2 523.74 19.72 523.75 14.56 521.12 C10.1 512.36 13.26 499.56 14.37 490.11 C14.53 488.74 14.68 487.37 14.83 486 C15.24 482.43 15.65 478.87 16.06 475.3 C16.48 471.68 16.89 468.07 17.3 464.45 C17.76 460.37 18.23 456.29 18.69 452.22 C19.78 442.81 20.85 433.43 21.34 423.97 C21.38 423.26 21.41 422.55 21.45 421.82 C21.58 419.5 21.69 417.19 21.81 414.88 C21.99 411.55 22.16 408.22 22.34 404.89 C22.38 404.05 22.42 403.2 22.47 402.34 C22.76 396.82 23.08 391.31 23.41 385.8 C25.09 358.17 26.32 330.5 25.88 302.81 C25.86 301.32 25.86 301.32 25.84 299.8 C25.61 285.16 24.67 270.59 23.37 256.01 C23.21 254.2 23.05 252.4 22.91 250.6 C20.48 221.02 20.48 221.02 6.88 195.81 C6.81 207.46 6.97 219.06 7.43 230.69 C7.49 232.29 7.54 233.89 7.6 235.49 C7.73 238.89 7.86 242.29 7.99 245.7 C8.19 251.11 8.39 256.53 8.59 261.94 C9.12 276.37 9.66 290.79 10.2 305.22 C10.56 314.71 10.91 324.21 11.26 333.7 C11.43 338.19 11.59 342.67 11.76 347.16 C12.59 368.72 13.05 390.23 12.88 411.81 C12.88 412.8 12.88 413.79 12.88 414.81 C8.04 414.35 5.07 411.99 1.44 409 C0.83 408.51 0.22 408.02 -0.4 407.52 C-5.97 403.01 -11.4 398.34 -16.82 393.65 C-19.75 391.12 -22.73 388.68 -25.75 386.25 C-35.14 378.62 -44.22 370.42 -52.12 361.25 C-54.32 358.75 -56.33 356.65 -58.94 354.56 C-61.44 352.56 -62.52 350.56 -64.12 347.81 C-65.79 346.14 -67.45 344.47 -69.12 342.81 C-77.26 333.57 -84.45 323.9 -90.67 313.28 C-91.59 311.71 -92.54 310.16 -93.52 308.63 C-101.75 295.57 -107.73 281.63 -111.6 266.72 C-112.08 264.99 -112.64 263.29 -113.21 261.59 C-125.46 224.56 -120.24 179.54 -109.97 142.82 C-109.42 140.86 -108.88 138.88 -108.36 136.91 C-106.77 130.87 -104.86 125.07 -102.62 119.25 C-100.82 114.52 -99.1 109.83 -97.74 104.95 C-96.01 99.05 -93.43 93.64 -90.75 88.12 C-90.05 86.64 -90.05 86.64 -89.33 85.12 C-86.66 79.58 -83.77 74.75 -80.12 69.81 C-79.12 67.82 -78.12 65.82 -77.12 63.81 C-69.79 51.97 -60.9 41.68 -51.12 31.81 C-49.79 30.46 -49.79 30.46 -48.42 29.08 C-42.71 23.43 -36.51 18.48 -30.12 13.62 C-29.46 13.11 -28.8 12.6 -28.11 12.08 C-24.22 9.15 -20.34 6.78 -15.93 4.69 C-13.94 3.76 -13.94 3.76 -11.47 2.19 C-7.42 -0.25 -4.54 -1.98 0 0 Z " fill="#0035A9" transform="translate(626.125,521.1875)"/>
<path d="M0 0 C20.59 0.18 40.6 3.04 60.19 9.31 C61.83 9.82 63.48 10.32 65.12 10.82 C72.93 13.27 80.28 16.03 87.51 19.92 C90.06 21.25 92.65 22.36 95.29 23.48 C98.8 25.03 102.18 26.83 105.56 28.62 C106.27 28.99 106.97 29.36 107.7 29.73 C116.66 34.47 124.79 40.38 132.94 46.38 C133.76 46.97 134.58 47.57 135.43 48.19 C139.69 51.32 143.54 54.47 147.19 58.31 C148.51 59.51 149.84 60.7 151.19 61.88 C151.88 62.48 152.57 63.08 153.28 63.7 C154.73 64.93 156.23 66.1 157.75 67.25 C160.5 69.58 162.72 72.12 165.05 74.87 C167.11 77.22 169.25 79.49 171.4 81.75 C177.88 88.59 183.45 95.84 188.89 103.52 C190.14 105.25 191.43 106.95 192.73 108.65 C196.43 113.45 199.79 117.99 202.3 123.52 C203.57 126.08 205.26 128.25 206.98 130.53 C208.26 132.41 209.1 134.29 210 136.38 C212.28 141.14 215.8 143.56 220.19 146.31 C221.12 146.91 222.04 147.51 223 148.12 C229.99 150.73 236.83 151.11 243.81 148.4 C247.7 146.62 251.49 144.67 255.3 142.72 C259.18 140.83 263.06 139.55 267.19 138.31 C268.41 137.91 269.62 137.51 270.88 137.09 C278.94 134.44 286.75 132.44 295.19 131.31 C296.27 131.13 297.34 130.94 298.45 130.75 C337.71 124.49 375.46 134.22 409.19 154.31 C410.25 154.92 411.31 155.52 412.4 156.14 C430.53 166.92 447.92 183.2 460.19 200.31 C461.35 201.8 462.52 203.27 463.69 204.75 C468.79 211.32 473.52 217.83 477.19 225.31 C478.35 227.09 479.51 228.86 480.69 230.62 C483.27 234.62 485.05 238.2 486.33 242.76 C487.33 245.72 488.63 248.43 489.99 251.24 C493.16 258.06 495.62 264.92 497.75 272.12 C498.04 273.08 498.04 273.08 498.33 274.06 C502.36 287.81 504.14 301.74 505.6 315.96 C505.69 316.79 505.78 317.61 505.87 318.47 C506.03 320.01 506.18 321.55 506.32 323.1 C507.07 330.52 509.3 337.55 514.19 343.31 C520.24 347.8 527.25 350.84 533.99 354.13 C541.09 357.65 547.63 361.89 554.19 366.31 C555.18 366.97 556.17 367.63 557.19 368.31 C557.19 368.97 557.19 369.63 557.19 370.31 C557.91 370.54 558.63 370.77 559.38 371 C562.76 372.58 564.58 374.65 567.19 377.31 C568.32 378.12 569.47 378.92 570.62 379.69 C573.91 381.96 576.28 384.55 578.8 387.64 C580.28 389.48 580.28 389.48 582.5 391.62 C590.76 399.89 597.46 408.7 603.9 418.4 C605.06 420.12 606.24 421.82 607.42 423.52 C614.93 434.39 620.27 446.08 625.19 458.31 C625.68 459.46 626.18 460.61 626.69 461.8 C630.35 470.4 632.78 478.95 634.71 488.09 C635.2 490.37 635.72 492.63 636.25 494.9 C636.6 496.43 636.96 497.97 637.31 499.5 C637.47 500.18 637.63 500.85 637.79 501.55 C638.3 503.8 638.75 506.05 639.19 508.31 C639.37 509.25 639.55 510.19 639.74 511.16 C641.66 522.6 641.58 534.05 641.56 545.62 C641.56 546.69 641.56 547.76 641.56 548.86 C641.52 569.84 639.48 589.24 633.34 609.38 C632.51 612.08 631.88 614.76 631.34 617.54 C630.04 623.52 627.73 629.09 625.44 634.75 C625.02 635.82 624.6 636.89 624.17 637.99 C621.75 644.03 619.04 649.6 615.57 655.1 C614.15 657.38 612.84 659.7 611.56 662.06 C609.61 665.61 607.47 668.96 605.19 672.31 C604.78 673.04 604.37 673.76 603.95 674.51 C601.62 678.22 598.9 681.55 596.12 684.94 C595.55 685.64 594.98 686.34 594.39 687.06 C583.93 699.77 583.93 699.77 579.19 704.31 C578.53 704.31 577.87 704.31 577.19 704.31 C576.98 704.86 576.78 705.41 576.56 705.98 C574.67 709.19 572.03 711.29 569.19 713.62 C568.61 714.11 568.03 714.59 567.43 715.09 C562.54 719.12 557.44 722.77 552.19 726.31 C550.98 727.21 549.77 728.1 548.56 729 C545.6 731.13 542.51 732.71 539.22 734.28 C537.12 735.35 535.21 736.57 533.25 737.88 C529.89 740.01 526.7 741.3 522.89 742.44 C520.17 743.32 517.56 744.38 514.92 745.46 C508 748.23 501.14 750.17 493.81 751.56 C493.02 751.71 492.24 751.86 491.42 752.02 C476.17 754.72 461 755.62 445.54 755.73 C443.69 755.75 441.84 755.77 440 755.79 C435.12 755.84 430.25 755.88 425.37 755.91 C421.35 755.95 417.33 755.98 413.31 756.02 C405.39 756.09 397.47 756.15 389.55 756.21 C381.07 756.27 372.59 756.35 364.11 756.47 C359.9 756.52 355.69 756.56 351.49 756.6 C349.69 756.62 347.89 756.64 346.09 756.67 C334.51 756.87 324.58 756.28 315.72 747.95 C309.4 741.22 307.83 735.74 308.05 726.34 C308.62 718.04 311.82 713.46 317.19 707.31 C317.91 706.43 318.63 705.54 319.38 704.62 C327.35 698.07 335.52 695.42 345.7 695.47 C346.83 695.45 347.96 695.43 349.13 695.41 C352.41 695.36 355.69 695.34 358.97 695.33 C363.03 695.3 367.09 695.24 371.15 695.18 C382.45 695.02 393.76 694.91 405.06 694.81 C435.49 694.57 435.49 694.57 465.9 693.88 C467.61 693.83 467.61 693.83 469.36 693.79 C478.09 693.48 485.91 692.22 494.19 689.31 C494.94 689.05 495.68 688.79 496.46 688.52 C511.61 683.15 526 675.5 537.5 664 C540.19 661.31 543 658.88 545.93 656.45 C551.84 650.85 556.66 644.54 561.12 637.75 C561.64 636.96 562.16 636.18 562.69 635.37 C571.4 621.96 577.36 608.57 582.19 593.31 C582.55 592.17 582.91 591.03 583.29 589.85 C584.44 585.33 585.12 580.81 585.75 576.19 C585.88 575.26 586.01 574.33 586.14 573.37 C587.09 566.36 587.88 559.38 588.19 552.31 C588.23 551.4 588.27 550.5 588.31 549.56 C588.51 540.6 587.54 531.7 586.48 522.81 C586.3 521.24 586.12 519.67 585.96 518.1 C583.6 495.72 574.59 473.95 562.19 455.31 C561.48 454.24 560.76 453.17 560.03 452.06 C556.17 446.55 551.85 441.53 547.27 436.6 C545.19 434.31 545.19 434.31 543.23 431.79 C531.05 417.01 507.33 403.89 488.75 399.5 C477.29 396.73 467.41 392.97 459.19 384.31 C458.35 383.63 458.35 383.63 457.5 382.94 C453.27 377.71 453.89 370.14 453.88 363.8 C453.85 361.72 453.83 359.64 453.8 357.56 C453.77 354.33 453.75 351.1 453.73 347.87 C453.63 334.07 452.88 320.86 450.19 307.31 C449.98 306.26 449.78 305.2 449.57 304.11 C449.05 301.58 448.48 299.07 447.88 296.56 C447.66 295.69 447.45 294.82 447.23 293.92 C442.3 274.33 432.69 253.5 419.19 238.31 C418.61 237.64 418.03 236.97 417.43 236.28 C414.08 232.37 414.08 232.37 410.48 228.7 C409.19 227.31 409.19 227.31 409.19 225.31 C408.6 225.05 408.02 224.78 407.41 224.51 C405.11 223.27 403.48 221.91 401.56 220.12 C393.83 213.24 385.34 208.08 376.19 203.31 C375.07 202.68 375.07 202.68 373.94 202.04 C350.64 189.34 321.79 185.63 296.19 192.31 C292.51 193.48 288.91 194.75 285.3 196.13 C282.69 197.12 280.11 197.96 277.44 198.75 C273.1 200.17 269.45 202.42 265.6 204.84 C263.46 206.15 261.33 207.25 259.06 208.31 C255.6 210 252.69 212.05 249.66 214.41 C246.36 216.96 242.99 219.41 239.62 221.88 C239 222.33 238.37 222.79 237.73 223.27 C236.5 224.17 235.27 225.07 234.03 225.97 C232.77 226.89 231.52 227.81 230.27 228.73 C222.64 234.31 214.36 234.34 205.19 233.31 C201.63 232.19 199.06 230.66 196.19 228.31 C195.65 227.91 195.11 227.51 194.56 227.1 C189.61 223.23 187.07 219.15 184.44 213.5 C184.06 212.74 183.69 211.99 183.31 211.21 C181.54 207.54 180 203.9 178.77 200.02 C176.87 194.07 174.24 188.47 171.62 182.81 C171.1 181.67 170.57 180.53 170.03 179.35 C165.63 169.97 160.7 161.07 155.19 152.31 C154.77 151.63 154.35 150.95 153.92 150.25 C151.02 145.52 147.85 141.22 144.32 136.92 C142.95 135.24 141.6 133.55 140.27 131.83 C130.55 119.42 118.99 107.53 106.19 98.31 C104.81 97.28 104.81 97.28 103.4 96.23 C83.81 82.07 61.03 70.63 37.26 65.74 C35 65.27 32.75 64.77 30.5 64.26 C20.61 62.1 10.82 60.7 0.73 59.91 C-0.12 59.84 -0.96 59.78 -1.82 59.71 C-2.57 59.65 -3.32 59.6 -4.09 59.55 C-5.81 59.31 -5.81 59.31 -6.81 58.31 C-6.97 55.71 -7.07 53.14 -7.13 50.54 C-7.15 49.74 -7.17 48.94 -7.19 48.11 C-7.24 46.41 -7.28 44.7 -7.32 42.99 C-7.37 40.44 -7.44 37.9 -7.51 35.35 C-7.63 30.34 -7.73 25.33 -7.81 20.31 C-7.83 19.45 -7.85 18.59 -7.86 17.71 C-7.91 15.2 -7.94 12.69 -7.96 10.18 C-7.98 9.42 -8 8.66 -8.01 7.87 C-8.02 6.01 -7.93 4.16 -7.81 2.31 C-5.11 -0.39 -3.8 0.01 0 0 Z " fill="#009D10" transform="translate(550.8125,294.6875)"/>
<path d="M0 0 C1 1 1 1 1.12 3.06 C1.12 3.96 1.12 4.86 1.11 5.8 C1.11 6.82 1.11 7.84 1.11 8.89 C1.11 10 1.1 11.11 1.1 12.25 C1.1 13.95 1.1 13.95 1.09 15.68 C1.09 19.31 1.08 22.93 1.06 26.56 C1.06 29.01 1.05 31.47 1.05 33.92 C1.04 39.95 1.02 45.97 1 52 C0.23 52.04 -0.54 52.09 -1.33 52.13 C-28.32 53.67 -55.31 55.96 -80.87 65.28 C-83.48 66.16 -86.14 66.76 -88.82 67.4 C-113.31 74.16 -138.32 87.94 -158 104 C-159.45 104.96 -159.45 104.96 -160.94 105.94 C-165.15 108.78 -168.91 111.91 -172.5 115.5 C-175 118 -175 118 -177.88 120.31 C-181.09 122.93 -183.71 125.97 -186.39 129.13 C-187.86 130.84 -189.4 132.41 -191 134 C-195.97 139.31 -200.07 144.89 -204 151 C-204.46 151.66 -204.92 152.33 -205.39 153.01 C-217.71 170.81 -227.49 190.72 -231.61 212.05 C-232.24 215.21 -232.98 218.35 -233.69 221.5 C-238.49 243.18 -235.82 264.63 -231.31 286.06 C-228.58 299.57 -230.04 312.3 -237.14 324.36 C-246.45 337.54 -257.43 343.32 -273 346 C-277.08 346.57 -281.16 347.04 -285.25 347.5 C-303.42 349.55 -319.6 353.02 -336.55 359.99 C-339.12 361.05 -341.7 362.07 -344.29 363.08 C-358.62 368.82 -371.25 378.1 -383 388 C-384.25 389.05 -384.25 389.05 -385.52 390.11 C-409.92 411.24 -423.89 441.87 -426.2 473.81 C-426.35 482.11 -425.03 489.91 -423.39 498.01 C-423.05 499.72 -422.78 501.44 -422.52 503.17 C-421.15 510.94 -418.04 517.73 -414.69 524.81 C-414.23 525.79 -413.76 526.77 -413.29 527.78 C-410.39 533.7 -407.14 538.88 -403 544 C-402 545.31 -402 545.31 -400.98 546.65 C-392.81 557.07 -383.6 565.2 -373 573 C-372.13 573.65 -371.26 574.3 -370.37 574.98 C-365.15 578.78 -359.79 581.78 -353.96 584.54 C-351 586 -351 586 -347.63 587.98 C-343.94 590.12 -340.13 591.62 -336.12 593.06 C-335.47 593.31 -334.81 593.55 -334.14 593.8 C-332.1 594.55 -330.05 595.27 -328 596 C-327.33 596.25 -326.65 596.5 -325.96 596.76 C-319.3 599.14 -312.51 600.38 -305.56 601.62 C-304.4 601.84 -303.24 602.06 -302.04 602.28 C-292 604.11 -282.22 605.15 -272.01 605.14 C-271.07 605.15 -270.13 605.15 -269.16 605.15 C-267.13 605.16 -265.1 605.17 -263.07 605.17 C-259.84 605.18 -256.61 605.19 -253.39 605.21 C-244.22 605.26 -235.05 605.31 -225.88 605.33 C-220.25 605.34 -214.63 605.37 -209 605.41 C-206.87 605.42 -204.74 605.42 -202.61 605.42 C-185.72 605.41 -170.02 605.77 -157 618 C-147.48 627.87 -147.48 627.87 -144.62 633.91 C-142.39 638.17 -139.31 641.3 -136 644.75 C-135.06 645.76 -135.06 645.76 -134.09 646.79 C-131.48 649.55 -129.19 651.88 -126 654 C-126 654.66 -126 655.32 -126 656 C-124.68 656.66 -123.36 657.32 -122 658 C-143.23 657.92 -164.46 657.82 -185.69 657.71 C-195.55 657.66 -205.41 657.62 -215.27 657.58 C-223.87 657.54 -232.48 657.5 -241.08 657.46 C-245.63 657.43 -250.17 657.41 -254.72 657.4 C-306.28 657.24 -306.28 657.24 -324.69 652.25 C-326.22 651.86 -326.22 651.86 -327.78 651.46 C-330.86 650.66 -333.93 649.83 -337 649 C-337.98 648.74 -338.96 648.48 -339.96 648.22 C-349.14 645.78 -358.15 643.37 -366.69 639.13 C-368.97 638.02 -371.25 637.13 -373.62 636.25 C-391.95 629.03 -409.59 617.75 -424.16 604.59 C-425.95 603.04 -427.79 601.71 -429.75 600.38 C-432.77 598.29 -434.75 595.92 -437 593 C-437.76 592.4 -438.53 591.8 -439.31 591.19 C-443.02 588.17 -445.94 584.66 -449 581 C-449.74 580.13 -450.48 579.25 -451.24 578.35 C-455.88 572.78 -460.16 567.15 -464 561 C-464.7 559.9 -464.7 559.9 -465.42 558.78 C-467.01 556.22 -468.52 553.63 -470 551 C-470.61 549.93 -471.21 548.86 -471.84 547.76 C-481.62 529.78 -488.5 509.54 -489 489 C-489.03 488.07 -489.06 487.13 -489.09 486.17 C-489.65 465.3 -488.13 446.69 -481 427 C-480.56 425.77 -480.12 424.54 -479.67 423.27 C-477.2 416.61 -474.33 410.27 -471 404 C-470.51 403.06 -470.03 402.12 -469.53 401.15 C-465.3 393.12 -465.3 393.12 -462.31 389.69 C-459.91 387.13 -459.91 387.13 -458.62 384.12 C-456.38 379.81 -453.26 376.58 -450 373 C-448.92 371.73 -447.83 370.46 -446.75 369.19 C-442.1 363.86 -437.03 358.96 -432 354 C-431.47 353.45 -430.94 352.9 -430.39 352.33 C-428.87 350.88 -427.29 349.74 -425.56 348.56 C-423.47 347.1 -421.75 345.75 -419.94 343.94 C-417.54 341.54 -414.83 339.83 -412 338 C-411.34 337.57 -410.68 337.14 -410 336.69 C-407.81 335.27 -405.63 333.85 -403.44 332.44 C-402.7 331.96 -401.95 331.47 -401.19 330.98 C-395.98 327.61 -390.97 324.38 -385.21 322.02 C-382.26 320.66 -379.46 319.07 -376.62 317.5 C-372.3 315.14 -368.22 313.2 -363.51 311.81 C-360.1 310.71 -356.81 309.31 -353.5 307.94 C-348.79 306.01 -344.24 304.44 -339.24 303.48 C-325.55 300.56 -314.55 293.95 -306.31 282.56 C-299.54 270.61 -299.65 257.4 -299.4 244.06 C-299.2 233.53 -298.47 223.38 -296.39 213.03 C-296 210.99 -295.67 208.95 -295.35 206.9 C-293.85 197.52 -291.16 188.95 -287.79 180.1 C-287.02 178.05 -286.28 176 -285.56 173.93 C-281.16 161.56 -275.81 149.57 -268.23 138.8 C-266.85 136.88 -266.85 136.88 -265.56 134.06 C-261.89 126.86 -256.69 120.49 -251.69 114.16 C-250.04 112.05 -248.46 109.91 -246.88 107.75 C-244.49 104.55 -241.87 101.79 -239 99 C-238.36 98.18 -237.72 97.35 -237.06 96.5 C-234.65 93.58 -231.93 91.39 -229 89 C-226.65 86.71 -224.36 84.37 -222.09 82.01 C-218.56 78.4 -215.41 75.5 -211 73 C-209.87 71.84 -208.74 70.68 -207.62 69.51 C-198.31 60.85 -186.57 54.01 -175.64 47.57 C-171.44 45.07 -167.31 42.44 -163.18 39.83 C-159.87 37.92 -156.52 36.47 -153 35 C-151.12 34.06 -149.24 33.1 -147.38 32.12 C-142.04 29.43 -136.62 27.23 -131.02 25.15 C-128.45 24.17 -125.99 23.11 -123.5 21.94 C-118.98 19.89 -114.34 18.48 -109.58 17.07 C-107.09 16.32 -104.61 15.56 -102.14 14.74 C-93.92 12.06 -85.8 10.01 -77.29 8.44 C-73.56 7.72 -69.86 6.91 -66.16 6.11 C-44.52 1.49 -22.2 -1.34 0 0 Z " fill="#1600C0" transform="translate(601,389)"/>
<path d="M0 0 C0.77 -0.01 1.54 -0.01 2.33 -0.02 C23.06 -0.13 23.06 -0.13 27.47 3.52 C28.89 5.12 30.04 6.75 31.19 8.56 C31.61 9.18 32.03 9.81 32.46 10.45 C35.72 15.46 37.99 20.65 39.92 26.31 C40.81 28.87 41.84 31.15 43.06 33.56 C45.69 39.34 46.57 45.64 47.56 51.88 C47.84 53.65 48.14 55.42 48.45 57.18 C53.65 88.06 49.64 122.95 38.69 152.22 C38.06 153.91 37.5 155.63 36.95 157.36 C34.97 163.53 32.04 169.2 29.06 174.94 C28.65 175.73 28.24 176.53 27.82 177.35 C24.1 184.35 19.61 190.55 14.31 196.44 C12.45 198.52 10.69 200.58 9 202.81 C5.99 206.37 2.52 209.27 -1.06 212.25 C-1.73 212.82 -2.4 213.39 -3.09 213.97 C-9.56 219.26 -16.7 223.34 -24.06 227.25 C-25.17 227.84 -25.17 227.84 -26.3 228.45 C-50.94 241.24 -86.24 250.36 -114.06 249.25 C-115.06 246.25 -115.06 246.25 -114.09 243.65 C-113.59 242.65 -113.08 241.65 -112.56 240.62 C-111.84 239.15 -111.84 239.15 -111.09 237.65 C-108.95 234.06 -106.54 230.9 -103.95 227.64 C-100.82 223.67 -97.86 219.58 -94.88 215.5 C-87.71 205.7 -87.71 205.7 -84.06 201.25 C-82.69 199.56 -81.31 197.88 -79.94 196.19 C-79.25 195.35 -78.57 194.51 -77.87 193.65 C-76.05 191.41 -76.05 191.41 -75.13 189.25 C-74.06 187.25 -74.06 187.25 -71.76 184.95 C-68.68 181.87 -66.33 178.58 -63.88 175 C-59.33 168.38 -59.33 168.38 -57.06 167.25 C-56.65 166.38 -56.24 165.52 -55.81 164.62 C-54.36 161.83 -53.18 160.1 -51.12 157.81 C-48.64 155.02 -46.81 152.26 -45.05 148.98 C-44.06 147.25 -44.06 147.25 -41.69 144.12 C-36.22 136.59 -31.91 127.66 -32.06 118.25 C-33.49 116.51 -33.49 116.51 -35.06 115.25 C-47.89 118.5 -57.1 126.59 -63.88 137.75 C-64.25 138.42 -64.63 139.09 -65.02 139.78 C-65.36 140.27 -65.71 140.75 -66.06 141.25 C-66.72 141.25 -67.38 141.25 -68.06 141.25 C-68.47 142.34 -68.47 142.34 -68.89 143.46 C-70 146.11 -71.26 148.43 -72.75 150.88 C-73.28 151.75 -73.81 152.62 -74.36 153.51 C-76.07 156.25 -77.81 158.97 -79.56 161.69 C-85.08 170.34 -89.64 179.34 -93.96 188.63 C-96.28 193.63 -98.7 198.58 -101.19 203.5 C-105.76 212.57 -109.98 221.78 -114.06 231.07 C-115.18 233.51 -116.4 235.87 -117.62 238.25 C-119.54 242.03 -120.93 245.73 -122.18 249.77 C-123.28 252.87 -124.66 255.78 -126.06 258.75 C-128.09 263.05 -129.82 267.24 -131.23 271.77 C-132.53 275.66 -134.11 279.43 -135.66 283.23 C-137.04 286.65 -138.38 290.09 -139.64 293.56 C-139.9 294.27 -140.16 294.98 -140.43 295.71 C-140.92 297.07 -141.4 298.43 -141.88 299.8 C-143.43 304.06 -145.22 307.71 -148.06 311.25 C-150.84 312.31 -153.22 312.02 -156.06 311.25 C-158.62 309.19 -158.62 309.19 -160.06 306.25 C-159.94 303 -159.94 303 -159.06 299.25 C-158.94 298.62 -158.81 297.98 -158.68 297.33 C-157.14 289.8 -154.58 282.65 -152.07 275.4 C-150 269.33 -148.28 263.29 -146.78 257.06 C-145.94 253.76 -144.87 250.6 -143.71 247.41 C-138.32 232.43 -138.82 222.84 -144.3 207.86 C-153.61 180.73 -155.33 149.54 -151.06 121.25 C-150.95 120.46 -150.85 119.68 -150.74 118.87 C-149.17 107.7 -146.35 97.48 -142.19 87 C-141.78 85.96 -141.37 84.93 -140.94 83.86 C-138.6 78.22 -135.95 73.19 -132.4 68.21 C-131.05 66.23 -130.01 64.24 -129 62.06 C-127.2 58.32 -124.85 55.32 -122.06 52.25 C-120.87 50.9 -119.69 49.54 -118.5 48.19 C-117.9 47.51 -117.3 46.83 -116.68 46.12 C-114.96 44.18 -114.96 44.18 -113.19 41.69 C-110.51 38.61 -107.45 36.33 -104.18 33.9 C-102.31 32.44 -100.73 30.93 -99.06 29.25 C-71.18 6.59 -34.88 0.11 0 0 Z " fill="#009D10" transform="translate(898.0625,747.75)"/>
<path d="M0 0 C-0.01 0.57 -0.02 1.15 -0.02 1.74 C-0.24 21.55 0.46 41.3 1.23 61.09 C1.59 70.52 1.93 79.94 2.27 89.36 C2.3 90.3 2.34 91.23 2.37 92.19 C3.05 111.22 3.47 130.25 3.71 149.29 C3.84 159.62 4.06 169.94 4.46 180.26 C4.5 181.28 4.54 182.3 4.58 183.35 C4.62 184.29 4.66 185.24 4.7 186.21 C4.73 187.04 4.77 187.87 4.8 188.73 C4.91 190.92 4.91 190.92 5.51 192.63 C6.24 196.14 6.08 199.63 6.03 203.19 C5.97 212.11 6.21 220.98 6.55 229.88 C6.61 231.48 6.67 233.08 6.73 234.67 C6.85 238.08 6.98 241.48 7.11 244.88 C7.32 250.3 7.52 255.72 7.72 261.13 C8.25 275.56 8.79 289.98 9.33 304.41 C9.68 313.9 10.04 323.39 10.39 332.89 C10.55 337.37 10.72 341.86 10.89 346.34 C11.72 367.91 12.18 389.42 12 411 C12 411.99 12 412.98 12 414 C7.16 413.54 4.2 411.17 0.56 408.19 C-0.04 407.7 -0.65 407.21 -1.28 406.71 C-6.85 402.2 -12.28 397.53 -17.69 392.84 C-20.62 390.31 -23.61 387.86 -26.62 385.44 C-36.02 377.81 -45.09 369.61 -53 360.44 C-55.2 357.93 -57.2 355.84 -59.81 353.75 C-62.31 351.75 -63.39 349.75 -65 347 C-66.66 345.33 -68.33 343.66 -70 342 C-78.13 332.76 -85.32 323.09 -91.55 312.46 C-92.47 310.9 -93.41 309.35 -94.39 307.82 C-102.63 294.76 -108.6 280.82 -112.48 265.91 C-112.95 264.18 -113.51 262.48 -114.08 260.78 C-126.33 223.75 -121.12 178.72 -110.84 142.01 C-110.29 140.04 -109.76 138.07 -109.24 136.1 C-107.65 130.06 -105.74 124.26 -103.5 118.44 C-101.69 113.71 -99.98 109.02 -98.62 104.14 C-96.89 98.24 -94.31 92.83 -91.62 87.31 C-90.92 85.82 -90.92 85.82 -90.2 84.3 C-87.54 78.77 -84.64 73.94 -81 69 C-79.99 67 -78.99 65 -78 63 C-70.66 51.16 -61.77 40.87 -52 31 C-50.66 29.65 -50.66 29.65 -49.3 28.27 C-43.58 22.62 -37.39 17.67 -31 12.81 C-30.34 12.3 -29.67 11.79 -28.99 11.26 C-25.1 8.34 -21.22 5.95 -16.83 3.87 C-15.26 3.12 -13.73 2.29 -12.21 1.45 C-11.42 1.01 -10.63 0.57 -9.81 0.12 C-8.62 -0.55 -8.62 -0.55 -7.39 -1.24 C-4.26 -2.24 -2.93 -1.31 0 0 Z " fill="#00E1FE" transform="translate(627,522)"/>
<path d="M0 0 C0.77 0.71 1.54 1.41 2.34 2.14 C3.02 2.69 3.7 3.24 4.4 3.8 C18.08 14.95 27.21 29.76 33.34 46.14 C33.78 47.3 34.23 48.46 34.69 49.66 C37.95 58.72 39.6 67.54 40.34 77.14 C40.41 77.92 40.47 78.71 40.54 79.52 C41.97 97.12 41.42 115.19 38.65 132.65 C38.32 136.4 38.71 138.19 40.28 141.57 C40.74 142.6 41.21 143.62 41.69 144.67 C42.23 145.82 42.78 146.96 43.34 148.14 C43.96 149.49 44.59 150.84 45.21 152.2 C48.38 159.05 51.67 165.84 55.09 172.57 C57.51 177.35 59.65 182.13 61.52 187.15 C62.37 189.39 62.37 189.39 64.34 192.14 C64.34 194.14 64.34 194.14 63.34 196.14 C60.53 198.01 60.53 198.01 57.34 199.14 C53.42 198.21 51.65 195.27 49.34 192.14 C48.09 189.79 46.91 187.47 45.78 185.07 C43.92 181.16 42.01 177.57 39.34 174.14 C38.68 172.88 38.06 171.61 37.46 170.32 C36.12 167.55 34.68 165.1 32.84 162.64 C31.1 160.3 29.72 158.02 28.46 155.39 C25.88 150.02 22.59 145.12 19.34 140.14 C18.14 138.28 16.93 136.43 15.74 134.57 C14.95 133.35 14.15 132.13 13.36 130.91 C11.89 128.64 10.47 126.42 9.33 123.98 C8.05 121.59 6.25 120.05 4.34 118.14 C3.15 116.37 2.01 114.58 0.9 112.76 C-1.71 108.56 -4.44 104.88 -7.66 101.14 C-8.3 100.17 -8.94 99.2 -9.6 98.2 C-12.75 93.53 -16.37 89.43 -20.35 85.45 C-22.36 83.43 -24.1 81.52 -25.66 79.14 C-25.66 78.48 -25.66 77.82 -25.66 77.14 C-26.22 76.89 -26.77 76.64 -27.35 76.39 C-30.08 74.91 -32.34 73.2 -34.66 71.14 C-34.66 70.48 -34.66 69.82 -34.66 69.14 C-42.47 66.3 -42.47 66.3 -50.66 65.14 C-52.36 66.56 -52.36 66.56 -53.66 68.14 C-51.64 76.5 -47.55 81.03 -41.66 87.14 C-40.73 88.23 -39.81 89.33 -38.91 90.45 C-35.78 94.18 -32.51 97.45 -28.72 100.51 C-26.47 102.35 -24.63 104.27 -22.79 106.51 C-20.06 109.8 -17.05 112.49 -13.8 115.25 C-11.48 117.29 -9.32 119.44 -7.16 121.64 C-4.43 124.4 -1.67 127.05 1.28 129.57 C17.91 143.92 17.91 143.92 22.34 152.14 C21.91 154.26 21.91 154.26 21.34 156.14 C-16.65 156.76 -16.65 156.76 -34.66 153.14 C-35.4 153 -36.14 152.87 -36.9 152.73 C-52.35 149.91 -66.48 144.46 -77.66 133.14 C-78.99 132 -80.32 130.88 -81.66 129.76 C-88.69 123.63 -96.68 115.9 -100.6 107.32 C-101.96 104.46 -103.46 101.84 -105.22 99.2 C-107.34 95.86 -108.65 92.69 -109.79 88.91 C-110.69 86.04 -111.74 83.23 -112.8 80.4 C-121.48 56.99 -123.85 33.58 -118.66 9.14 C-118.43 8.02 -118.2 6.9 -117.97 5.75 C-114.35 -10.38 -114.35 -10.38 -108.22 -14.51 C-103.25 -16.4 -98.27 -17.18 -93.04 -17.99 C-92.02 -18.16 -91 -18.33 -89.95 -18.5 C-59.54 -23.4 -24.09 -21.34 0 0 Z " fill="#009D10" transform="translate(525.66015625,838.86328125)"/>
<path d="M0 0 C0.99 1.98 0.99 1.98 2 4 C1.36 4.96 0.72 5.91 0.06 6.89 C-4.42 13.59 -8.86 20.3 -13.15 27.12 C-14.99 29.99 -16.89 32.82 -18.79 35.65 C-22.39 40.98 -25.84 46.28 -28.86 51.96 C-30.56 55 -32.53 57.84 -34.48 60.72 C-39.77 68.66 -44.37 77.06 -49.13 85.31 C-49.81 86.5 -49.81 86.5 -50.51 87.71 C-50.94 88.46 -51.38 89.21 -51.82 89.98 C-52.78 91.62 -53.76 93.25 -54.75 94.88 C-56.09 97.15 -57.05 99.49 -58.05 101.93 C-59.21 104.47 -60.57 106.87 -61.94 109.31 C-64.29 113.57 -66.28 117.8 -68 122.35 C-68.72 124.26 -69.49 126.15 -70.29 128.02 C-70.95 129.62 -70.95 129.62 -71.62 131.25 C-72.03 132.2 -72.43 133.16 -72.85 134.14 C-74.4 138.65 -74.85 143.36 -75.48 148.07 C-76.02 152.13 -76.63 156.18 -77.25 160.23 C-77.47 161.65 -77.69 163.06 -77.9 164.47 C-78.23 166.62 -78.57 168.77 -78.9 170.92 C-81.05 184.79 -82.24 198.26 -82.25 212.31 C-82.25 213.11 -82.25 213.91 -82.25 214.73 C-82.25 227.36 -81.61 239.6 -79 252 C-78.76 253.14 -78.52 254.29 -78.27 255.47 C-77.6 258.34 -76.82 261.16 -76 264 C-75.77 264.97 -75.54 265.94 -75.31 266.94 C-72.53 277.68 -66.73 286.63 -61 296 C-60.05 297.57 -59.1 299.15 -58.15 300.73 C-53.25 308.84 -48.22 316.86 -43.06 324.81 C-41.1 327.84 -39.17 330.89 -37.25 333.94 C-35.35 336.94 -33.41 339.88 -31.31 342.75 C-29.37 345.47 -27.71 348.22 -26.08 351.13 C-22.74 356.89 -18.82 362.27 -14.88 367.62 C-12.71 370.58 -10.63 373.47 -8.88 376.69 C-7.41 379.27 -5.98 381.42 -4.19 383.75 C-1.89 386.74 0.19 389.8 2.19 393 C6.88 400.5 11.96 407.73 17 415 C16.01 415.33 15.02 415.66 14 416 C9.6 413.47 5.82 410.26 2 406.94 C-2.57 403.01 -7.22 399.24 -12 395.56 C-18.02 390.91 -23.61 385.88 -29.15 380.66 C-31.39 378.57 -33.65 376.54 -36 374.56 C-40.38 370.82 -44.21 366.77 -48 362.44 C-50.2 359.93 -52.2 357.84 -54.81 355.75 C-57.31 353.75 -58.39 351.75 -60 349 C-61.66 347.33 -63.33 345.66 -65 344 C-73.13 334.76 -80.32 325.09 -86.55 314.46 C-87.47 312.9 -88.41 311.35 -89.39 309.82 C-97.63 296.76 -103.6 282.82 -107.48 267.91 C-107.95 266.18 -108.51 264.48 -109.08 262.78 C-121.33 225.75 -116.12 180.72 -105.84 144.01 C-105.29 142.04 -104.76 140.07 -104.24 138.1 C-102.65 132.06 -100.74 126.26 -98.5 120.44 C-96.69 115.71 -94.98 111.02 -93.62 106.14 C-91.89 100.24 -89.31 94.83 -86.62 89.31 C-85.92 87.82 -85.92 87.82 -85.2 86.3 C-82.54 80.77 -79.64 75.94 -76 71 C-74.99 69 -73.99 67 -73 65 C-65.66 53.16 -56.77 42.87 -47 33 C-45.66 31.65 -45.66 31.65 -44.3 30.27 C-38.58 24.62 -32.39 19.67 -26 14.81 C-25.34 14.3 -24.67 13.79 -23.99 13.26 C-19.54 9.92 -15.04 7.34 -10 5 C-9.02 4.51 -8.04 4.02 -7.03 3.52 C-4.69 2.34 -2.34 1.17 0 0 Z " fill="#0035AA" transform="translate(622,520)"/>
<path d="" fill="#00E1FE" transform="translate(0,0)"/>
</svg>
